HIERARCHY
ROOT newVegas:Hips
{
	OFFSET 0.000000 96.479958 0.000000
	CHANNELS 6 Xposition Yposition Zposition Xrotation Yrotation Zrotation
	JOINT newVegas:Pelvis
	{
		OFFSET 0.000000 0.000000 0.000000
		CHANNELS 3 Xrotation Yrotation Zrotation
		JOINT newVegas:LeftUpLeg
		{
			OFFSET 18.735201 -5.666702 -4.541200
			CHANNELS 3 Xrotation Yrotation Zrotation
			JOINT newVegas:LeftLeg
			{
				OFFSET -0.021200 -31.938179 0.493100
				CHANNELS 3 Xrotation Yrotation Zrotation
				JOINT newVegas:LeftFoot
				{
					OFFSET 0.021200 -31.938179 -4.336299
					CHANNELS 3 Xrotation Yrotation Zrotation
					JOINT newVegas:LeftToeBase
					{
						OFFSET 0.943001 -26.722000 15.023500
						CHANNELS 3 Xrotation Yrotation Zrotation
						End Site
						{
							OFFSET 0.000000 30.670183 0.000000
						}
					}
				}
				JOINT newVegas:Left_PantLeg
				{
					OFFSET 0.663870 -9.044666 -1.108900
					CHANNELS 3 Xrotation Yrotation Zrotation
					End Site
					{
						OFFSET 1.415995 20.635357 0.000000
					}
				}
			}
		}
		JOINT newVegas:RightUpLeg
		{
			OFFSET -18.735201 -5.666702 -4.541200
			CHANNELS 3 Xrotation Yrotation Zrotation
			JOINT newVegas:RightLeg
			{
				OFFSET 0.018946 -31.938133 0.493100
				CHANNELS 3 Xrotation Yrotation Zrotation
				JOINT newVegas:RightFoot
				{
					OFFSET -0.018946 -31.938126 -4.336299
					CHANNELS 3 Xrotation Yrotation Zrotation
					JOINT newVegas:RightToeBase
					{
						OFFSET -0.943001 -26.722004 15.023500
						CHANNELS 3 Xrotation Yrotation Zrotation
						End Site
						{
							OFFSET 0.000000 30.670187 0.000000
						}
					}
				}
				JOINT newVegas:Right_PantLeg
				{
					OFFSET -0.661674 -9.044716 -1.108900
					CHANNELS 3 Xrotation Yrotation Zrotation
					End Site
					{
						OFFSET -1.415958 20.635269 0.000000
					}
				}
			}
		}
	}
	JOINT newVegas:Spine
	{
		OFFSET 0.000000 10.199997 -0.299500
		CHANNELS 3 Xrotation Yrotation Zrotation
		JOINT newVegas:Spine1
		{
			OFFSET 0.000000 11.900002 -1.516600
			CHANNELS 3 Xrotation Yrotation Zrotation
			JOINT newVegas:Spine2
			{
				OFFSET 0.000000 13.600006 -2.842500
				CHANNELS 3 Xrotation Yrotation Zrotation
				JOINT newVegas:Neck
				{
					OFFSET 0.000000 9.624100 -2.890100
					CHANNELS 3 Xrotation Yrotation Zrotation
					JOINT newVegas:Head
					{
						OFFSET 0.000000 14.068802 -1.351900
						CHANNELS 3 Xrotation Yrotation Zrotation
						JOINT newVegas:Hair_Back
						{
							OFFSET 0.000000 3.231903 -17.524799
							CHANNELS 3 Xrotation Yrotation Zrotation
							End Site
							{
								OFFSET 0.000000 19.849884 0.000000
							}
						}
						JOINT newVegas:Hair_Front
						{
							OFFSET 0.000000 31.260406 4.573800
							CHANNELS 3 Xrotation Yrotation Zrotation
							JOINT newVegas:Hair_Front1
							{
								OFFSET 0.000000 2.284103 11.993300
								CHANNELS 3 Xrotation Yrotation Zrotation
								JOINT newVegas:Hair_Front2
								{
									OFFSET 0.000000 2.284103 11.993300
									CHANNELS 3 Xrotation Yrotation Zrotation
									End Site
									{
										OFFSET 0.000000 12.208862 0.000000
									}
								}
							}
						}
						JOINT newVegas:Jowel
						{
							OFFSET 0.000000 -7.458206 6.864100
							CHANNELS 3 Xrotation Yrotation Zrotation
							End Site
							{
								OFFSET 0.000000 19.849884 0.000000
							}
						}
					}
				}
				JOINT newVegas:LeftShoulder
				{
					OFFSET 15.263000 10.923401 -0.547700
					CHANNELS 3 Xrotation Yrotation Zrotation
					JOINT newVegas:LeftArm
					{
						OFFSET 25.438599 -2.830597 -13.032500
						CHANNELS 3 Xrotation Yrotation Zrotation
						JOINT newVegas:LeftForeArm
						{
							OFFSET 29.960503 0.000000 0.000000
							CHANNELS 3 Xrotation Yrotation Zrotation
							JOINT newVegas:LeftHand
							{
								OFFSET 27.849251 0.000000 0.000000
								CHANNELS 3 Xrotation Yrotation Zrotation
								JOINT newVegas:LeftHandThumb1
								{
									OFFSET 4.487587 -3.305161 6.305391
									CHANNELS 3 Xrotation Yrotation Zrotation
									JOINT newVegas:LeftHandThumb2
									{
										OFFSET 5.480453 -3.164139 3.164143
										CHANNELS 3 Xrotation Yrotation Zrotation
										JOINT newVegas:LeftHandThumb3
										{
											OFFSET 5.159721 -2.978973 2.978967
											CHANNELS 3 Xrotation Yrotation Zrotation
											End Site
											{
												OFFSET 2.494507 5.926697 1.738678
											}
										}
									}
								}
								JOINT newVegas:LeftHandIndex1
								{
									OFFSET 18.578728 -0.527832 5.208049
									CHANNELS 3 Xrotation Yrotation Zrotation
									JOINT newVegas:LeftHandIndex2
									{
										OFFSET 3.192009 0.000000 0.000000
										CHANNELS 3 Xrotation Yrotation Zrotation
										JOINT newVegas:LeftHandIndex3
										{
											OFFSET 3.835129 0.000000 0.000000
											CHANNELS 3 Xrotation Yrotation Zrotation
											End Site
											{
												OFFSET -0.034599 3.816971 0.371180
											}
										}
									}
								}
								JOINT newVegas:LeftHandMiddle1
								{
									OFFSET 18.476105 0.000000 0.000000
									CHANNELS 3 Xrotation Yrotation Zrotation
									JOINT newVegas:LeftHandMiddle2
									{
										OFFSET 3.324875 0.000000 0.000000
										CHANNELS 3 Xrotation Yrotation Zrotation
										JOINT newVegas:LeftHandMiddle3
										{
											OFFSET 4.596550 0.000000 0.000000
											CHANNELS 3 Xrotation Yrotation Zrotation
											End Site
											{
												OFFSET 0.057701 4.578827 0.399218
											}
										}
									}
								}
								JOINT newVegas:LeftHandRing1
								{
									OFFSET 17.732719 0.121887 -4.201567
									CHANNELS 3 Xrotation Yrotation Zrotation
									JOINT newVegas:LeftHandRing2
									{
										OFFSET 2.733170 0.000000 0.000000
										CHANNELS 3 Xrotation Yrotation Zrotation
										JOINT newVegas:LeftHandRing3
										{
											OFFSET 3.178268 0.000000 0.000000
											CHANNELS 3 Xrotation Yrotation Zrotation
											End Site
											{
												OFFSET 0.119102 3.170624 0.185394
											}
										}
									}
								}
								JOINT newVegas:LeftHandPinky1
								{
									OFFSET 15.989624 -0.606689 -7.535461
									CHANNELS 3 Xrotation Yrotation Zrotation
									JOINT newVegas:LeftHandPinky2
									{
										OFFSET 2.538986 0.000000 0.000000
										CHANNELS 3 Xrotation Yrotation Zrotation
										JOINT newVegas:LeftHandPinky3
										{
											OFFSET 2.593102 0.000000 0.000000
											CHANNELS 3 Xrotation Yrotation Zrotation
											End Site
											{
												OFFSET -0.150902 2.584198 0.152708
											}
										}
									}
								}
							}
							JOINT newVegas:Left_Sleeve
							{
								OFFSET 0.267448 -0.649796 0.577675
								CHANNELS 3 Xrotation Yrotation Zrotation
								End Site
								{
									OFFSET 0.000000 15.991241 0.000000
								}
							}
							JOINT newVegas:Left_CapeC
							{
								OFFSET 15.715958 -8.608795 -6.935905
								CHANNELS 3 Xrotation Yrotation Zrotation
								JOINT newVegas:Left_CapeC1
								{
									OFFSET 0.000000 -8.688499 0.000000
									CHANNELS 3 Xrotation Yrotation Zrotation
									End Site
									{
										OFFSET 0.000000 8.688499 0.000000
									}
								}
							}
						}
						JOINT newVegas:Left_CapeB
						{
							OFFSET 26.118385 -8.608795 -7.079235
							CHANNELS 3 Xrotation Yrotation Zrotation
							JOINT newVegas:Left_CapeB1
							{
								OFFSET 0.000000 -8.688499 0.000000
								CHANNELS 3 Xrotation Yrotation Zrotation
								End Site
								{
									OFFSET 0.000000 8.688499 0.000000
								}
							}
						}
						JOINT newVegas:Left_CapeA
						{
							OFFSET 5.115639 -8.608795 -10.395809
							CHANNELS 3 Xrotation Yrotation Zrotation
							JOINT newVegas:Left_CapeA1
							{
								OFFSET 0.000000 -8.688499 0.000000
								CHANNELS 3 Xrotation Yrotation Zrotation
								End Site
								{
									OFFSET 0.000000 8.688499 0.000000
								}
							}
						}
					}
				}
				JOINT newVegas:RightShoulder
				{
					OFFSET -15.263000 10.923401 -0.547700
					CHANNELS 3 Xrotation Yrotation Zrotation
					JOINT newVegas:RightArm
					{
						OFFSET -25.438599 -2.830597 -13.032500
						CHANNELS 3 Xrotation Yrotation Zrotation
						JOINT newVegas:RightForeArm
						{
							OFFSET -29.960503 0.000000 0.000000
							CHANNELS 3 Xrotation Yrotation Zrotation
							JOINT newVegas:RightHand
							{
								OFFSET -27.849251 0.000000 0.000000
								CHANNELS 3 Xrotation Yrotation Zrotation
								JOINT newVegas:RightHandThumb1
								{
									OFFSET -4.487587 -3.305161 6.305391
									CHANNELS 3 Xrotation Yrotation Zrotation
									JOINT newVegas:RightHandThumb2
									{
										OFFSET -5.480453 -3.164139 3.164143
										CHANNELS 3 Xrotation Yrotation Zrotation
										JOINT newVegas:RightHandThumb3
										{
											OFFSET -5.159721 -2.978973 2.978967
											CHANNELS 3 Xrotation Yrotation Zrotation
											End Site
											{
												OFFSET -2.494507 5.926697 1.738678
											}
										}
									}
								}
								JOINT newVegas:RightHandIndex1
								{
									OFFSET -18.578728 -0.527832 5.208049
									CHANNELS 3 Xrotation Yrotation Zrotation
									JOINT newVegas:RightHandIndex2
									{
										OFFSET -3.192009 0.000000 0.000000
										CHANNELS 3 Xrotation Yrotation Zrotation
										JOINT newVegas:RightHandIndex3
										{
											OFFSET -3.835129 0.000000 0.000000
											CHANNELS 3 Xrotation Yrotation Zrotation
											End Site
											{
												OFFSET 0.034599 3.816971 0.371180
											}
										}
									}
								}
								JOINT newVegas:RightHandMiddle1
								{
									OFFSET -18.476105 0.000000 0.000000
									CHANNELS 3 Xrotation Yrotation Zrotation
									JOINT newVegas:RightHandMiddle2
									{
										OFFSET -3.324875 0.000000 0.000000
										CHANNELS 3 Xrotation Yrotation Zrotation
										JOINT newVegas:RightHandMiddle3
										{
											OFFSET -4.596550 0.000000 0.000000
											CHANNELS 3 Xrotation Yrotation Zrotation
											End Site
											{
												OFFSET -0.057701 4.578827 0.399218
											}
										}
									}
								}
								JOINT newVegas:RightHandRing1
								{
									OFFSET -17.732719 0.121887 -4.201567
									CHANNELS 3 Xrotation Yrotation Zrotation
									JOINT newVegas:RightHandRing2
									{
										OFFSET -2.733170 0.000000 0.000000
										CHANNELS 3 Xrotation Yrotation Zrotation
										JOINT newVegas:RightHandRing3
										{
											OFFSET -3.178268 0.000000 0.000000
											CHANNELS 3 Xrotation Yrotation Zrotation
											End Site
											{
												OFFSET -0.119102 3.170624 0.185394
											}
										}
									}
								}
								JOINT newVegas:RightHandPinky1
								{
									OFFSET -15.989624 -0.606689 -7.535461
									CHANNELS 3 Xrotation Yrotation Zrotation
									JOINT newVegas:RightHandPinky2
									{
										OFFSET -2.538986 0.000000 0.000000
										CHANNELS 3 Xrotation Yrotation Zrotation
										JOINT newVegas:RightHandPinky3
										{
											OFFSET -2.593102 0.000000 0.000000
											CHANNELS 3 Xrotation Yrotation Zrotation
											End Site
											{
												OFFSET 0.150902 2.584198 0.152708
											}
										}
									}
								}
							}
							JOINT newVegas:Right_CapeC
							{
								OFFSET -15.715958 -8.608795 -6.935905
								CHANNELS 3 Xrotation Yrotation Zrotation
								JOINT newVegas:Right_CapeC1
								{
									OFFSET 0.000000 -8.688499 0.000000
									CHANNELS 3 Xrotation Yrotation Zrotation
									End Site
									{
										OFFSET 0.000000 8.688499 0.000000
									}
								}
							}
							JOINT newVegas:Right_Sleeve
							{
								OFFSET -0.267448 -0.649994 0.577675
								CHANNELS 3 Xrotation Yrotation Zrotation
								End Site
								{
									OFFSET 0.000000 15.991302 0.000000
								}
							}
						}
						JOINT newVegas:Right_CapeA
						{
							OFFSET -5.115540 -8.608795 -10.395824
							CHANNELS 3 Xrotation Yrotation Zrotation
							JOINT newVegas:Right_CapeA1
							{
								OFFSET 0.000000 -8.688499 0.000000
								CHANNELS 3 Xrotation Yrotation Zrotation
								End Site
								{
									OFFSET 0.000000 8.688499 0.000000
								}
							}
						}
						JOINT newVegas:Right_CapeB
						{
							OFFSET -26.118187 -8.608795 -7.079266
							CHANNELS 3 Xrotation Yrotation Zrotation
							JOINT newVegas:Right_CapeB1
							{
								OFFSET 0.000000 -8.688499 0.000000
								CHANNELS 3 Xrotation Yrotation Zrotation
								End Site
								{
									OFFSET 0.000000 8.688499 0.000000
								}
							}
						}
					}
				}
				JOINT newVegas:Left_Collar
				{
					OFFSET 18.625099 8.655502 8.828100
					CHANNELS 3 Xrotation Yrotation Zrotation
					JOINT newVegas:Left_Collar1
					{
						OFFSET 14.783401 10.540405 -1.259500
						CHANNELS 3 Xrotation Yrotation Zrotation
						End Site
						{
							OFFSET 0.000000 18.199875 0.000000
						}
					}
				}
				JOINT newVegas:Collar_Back
				{
					OFFSET 0.000000 15.630707 -20.132601
					CHANNELS 3 Xrotation Yrotation Zrotation
					End Site
					{
						OFFSET 0.000000 22.523010 0.000000
					}
				}
				JOINT newVegas:Left_Peck
				{
					OFFSET 17.239599 -5.132599 25.482599
					CHANNELS 3 Xrotation Yrotation Zrotation
					End Site
					{
						OFFSET 0.000000 22.523010 0.000000
					}
				}
				JOINT newVegas:Right_Peck
				{
					OFFSET -17.239599 -5.132202 25.482599
					CHANNELS 3 Xrotation Yrotation Zrotation
					End Site
					{
						OFFSET 0.000000 22.523010 0.000000
					}
				}
				JOINT newVegas:Right_Collar
				{
					OFFSET -18.625099 8.655792 8.828100
					CHANNELS 3 Xrotation Yrotation Zrotation
					JOINT newVegas:Right_Collar1
					{
						OFFSET -14.783401 10.539993 -1.259500
						CHANNELS 3 Xrotation Yrotation Zrotation
						End Site
						{
							OFFSET 0.000000 18.199631 0.000000
						}
					}
				}
			}
		}
		JOINT newVegas:Belly
		{
			OFFSET 0.000000 -6.540398 9.014299
			CHANNELS 3 Xrotation Yrotation Zrotation
			End Site
			{
				OFFSET 0.000000 11.566666 0.000000
			}
		}
	}
	JOINT newVegas:ElvisFacialAnim_Joint
	{
		OFFSET 1.000000 -95.330101 -8.825800
		CHANNELS 3 Xrotation Yrotation Zrotation
		End Site
		{
			OFFSET 0.000000 35.315800 0.000000
		}
	}
}
MOTION
Frames: 4
Frame Time: 0.033333
-0.903376 84.185913 6.325848 -1.351584 29.639852 -12.952247 0.000001 -0.000001 0.000000 -41.523688 -0.927007 29.337712 72.938873 5.176700 7.001621 -28.845282 5.820256 -16.750493 -0.000000 -0.000002 -0.000000 -0.000000 -0.000003 0.000003 -26.044348 -6.824840 -10.555524 31.398783 10.417108 0.985693 -3.290758 -2.853211 17.351872 0.000000 0.000001 0.000000 -0.000000 -0.000001 -0.000002 3.505418 -0.411748 -2.847446 7.010589 -0.837086 -3.715720 7.010594 -0.837078 -3.715733 -0.536262 6.527708 0.239882 -0.536276 6.527710 0.239898 -0.000002 0.000002 -0.000001 -0.536285 6.527733 0.239886 -0.536176 6.527681 0.239880 -0.000001 0.000001 -0.000001 -0.000002 0.000002 0.000001 4.151700 -14.965851 -5.720143 4.201715 -10.691354 -30.209592 44.999424 -33.107324 -10.273713 10.527143 3.179124 -6.077814 -0.310793 1.877998 -0.804772 0.010546 -0.961015 5.269154 0.000000 0.000000 0.000001 22.027466 -9.064389 0.104740 -0.424814 -0.391961 -26.921664 -0.000001 0.000001 0.000002 -0.152430 0.016457 -7.229228 -0.393486 -1.412959 -20.269199 -0.000002 0.000003 -0.000001 -0.436128 5.860793 -14.657979 -0.308451 -2.207130 -23.296742 -0.000003 -0.000000 -0.000005 0.273520 14.037246 -9.847150 -0.572576 -5.669504 -33.121677 -0.000003 -0.000000 0.000004 0.000001 0.000001 0.000000 0.000001 0.000001 0.000000 0.000000 0.000001 0.000000 0.000000 0.000000 0.000001 0.000001 0.000000 0.000001 0.000000 0.000000 0.000001 -0.000000 -0.000000 0.000001 3.500664 -5.589790 13.349332 23.671962 -17.831105 58.929732 33.546375 49.664419 -1.717510 15.638111 -17.148938 14.280828 -6.896639 1.280035 -10.377016 0.448045 0.612618 -2.356663 -0.000002 -0.000002 0.000003 -1.579982 1.237493 11.353514 0.058465 -1.061612 17.658578 -0.000000 -0.000000 -0.000003 -1.838377 -0.620059 13.973065 -0.586834 1.414845 25.710504 0.000003 0.000001 -0.000004 1.667928 -0.358654 2.201230 -2.404989 5.030980 59.723338 -0.000001 0.000001 -0.000000 1.765914 -3.294800 7.264625 -2.042019 8.414728 51.389961 0.000002 0.000003 -0.000002 -0.000000 -0.000001 -0.000002 0.000001 -0.000001 -0.000002 -0.000000 -0.000001 -0.000001 0.000000 -0.000001 -0.000001 -0.000000 0.000000 -0.000000 0.000000 -0.000001 -0.000001 0.000000 0.000000 0.000002 0.000000 0.000001 -0.000001 0.000000 0.000001 -0.000001 0.000000 0.000001 -0.000001 0.000000 0.000001 -0.000001 0.000000 0.000001 -0.000001 0.000000 0.000001 -0.000001 0.000000 0.000001 -0.000001 -0.000000 0.000000 -0.000000 0.000001 -0.000001 0.000000 
-0.837072 84.168137 6.301599 -2.174940 28.767978 -12.589593 -0.000000 -0.000001 0.000001 -40.423095 -0.372810 29.654967 73.113582 5.777814 7.059360 -29.428461 5.975369 -17.071926 -0.000000 -0.000001 0.000000 -0.000000 -0.000003 -0.000000 -25.933579 -6.588954 -10.284288 31.608790 10.637104 0.813759 -3.180211 -2.432987 17.126988 -0.000000 0.000003 0.000000 -0.000000 -0.000002 -0.000000 3.368583 -0.531496 -2.840925 6.737232 -1.110194 -3.688256 6.737232 -1.110193 -3.688248 -0.534032 6.571505 0.256385 -0.534032 6.571505 0.256386 0.000000 -0.000002 0.000003 -0.534018 6.571469 0.256393 -0.533964 6.571549 0.256371 -0.000000 -0.000004 0.000004 0.000000 -0.000002 0.000003 4.161744 -14.812904 -5.619266 4.207490 -9.470214 -31.844340 44.863459 -32.870900 -10.097851 10.089083 2.699366 -5.922820 -0.310798 1.877997 -0.804771 0.009037 -0.899912 5.127136 0.000003 0.000000 -0.000001 22.041777 -9.025995 0.087373 -0.424816 -0.389733 -26.911289 -0.000000 -0.000001 0.000002 -0.175043 -0.046571 -7.386928 -0.392207 -1.412485 -20.258570 -0.000000 0.000001 -0.000003 -0.436006 5.819006 -14.825404 -0.310584 -2.214888 -23.377793 0.000001 0.000001 0.000001 0.243806 13.921835 -10.032304 -0.582051 -5.663222 -32.936265 0.000000 -0.000005 -0.000001 -0.000003 0.000001 0.000001 -0.000003 0.000001 0.000001 -0.000003 0.000002 0.000001 0.000001 0.000000 0.000002 0.000001 0.000000 -0.000000 0.000001 0.000000 0.000002 0.000000 -0.000000 0.000001 3.596660 -6.420853 13.577147 24.153209 -18.120155 59.258878 33.874381 51.012190 -2.230124 12.628681 -17.175870 12.824548 -6.896639 1.280037 -10.377018 -0.005117 0.295597 -1.767322 -0.000001 -0.000000 -0.000000 -1.665928 1.739816 11.699615 0.014341 -1.017310 18.204925 -0.000002 0.000001 0.000002 -0.719527 -5.227895 14.253125 -0.529220 1.377566 25.070076 0.000005 0.000001 -0.000000 1.698462 -2.174800 3.204656 -2.421164 5.054557 60.151147 0.000005 -0.000001 0.000002 1.721237 -3.186967 8.141821 -2.051864 8.438424 51.567901 -0.000002 -0.000004 -0.000001 -0.000003 -0.000000 -0.000002 -0.000003 -0.000001 -0.000001 -0.000003 -0.000001 -0.000001 0.000001 -0.000001 -0.000000 0.000000 0.000000 0.000001 0.000001 -0.000001 -0.000000 0.000000 0.000000 0.000003 -0.000000 -0.000001 -0.000001 -0.000000 -0.000001 -0.000001 -0.000000 -0.000001 -0.000001 -0.000000 -0.000001 -0.000001 -0.000000 -0.000001 -0.000001 -0.000000 -0.000001 -0.000001 -0.000000 -0.000001 -0.000001 0.000001 0.000001 0.000000 -0.000000 -0.000001 0.000001 
-0.769974 84.124985 6.215175 -2.691363 28.106235 -12.313675 -0.000000 0.000001 0.000001 -39.725780 0.089376 29.811716 73.253205 6.211607 7.051039 -29.871255 6.077595 -17.268747 0.000000 0.000002 -0.000000 -0.000001 0.000003 -0.000001 -25.977062 -6.411468 -10.239254 31.728155 10.771003 0.685660 -3.051296 -2.036634 17.117678 0.000000 -0.000000 0.000000 -0.000000 0.000000 -0.000001 3.278602 -0.590072 -2.815378 6.557722 -1.247197 -3.629563 6.557724 -1.247209 -3.629557 -0.542027 6.610036 0.276706 -0.542020 6.610039 0.276697 0.000001 0.000002 -0.000001 -0.542026 6.610057 0.276708 -0.541941 6.610059 0.276689 -0.000000 -0.000002 0.000001 0.000001 0.000002 -0.000000 4.155927 -14.859147 -5.668139 4.015677 -8.649360 -33.021058 44.694395 -32.768280 -9.970858 10.081128 2.357461 -5.744601 -0.310794 1.877999 -0.804769 0.066918 -0.716164 5.057255 0.000001 0.000001 -0.000001 22.019869 -9.061834 -0.051436 -0.426411 -0.388654 -26.907088 0.000001 -0.000002 0.000000 -0.195660 -0.051485 -7.603356 -0.392044 -1.413697 -20.273806 -0.000000 -0.000002 -0.000003 -0.430087 5.813560 -15.067406 -0.308450 -2.216514 -23.373519 -0.000000 -0.000002 -0.000000 0.259835 13.855449 -10.315423 -0.589289 -5.671369 -32.977314 -0.000002 0.000000 -0.000000 0.000000 -0.000000 0.000000 0.000000 -0.000000 0.000000 -0.000001 -0.000000 0.000000 0.000000 -0.000001 -0.000002 0.000001 -0.000001 -0.000002 0.000000 -0.000001 -0.000002 0.000000 -0.000001 -0.000002 3.651617 -7.271639 13.602467 24.665408 -18.817058 60.150273 34.241938 52.455925 -2.768224 8.322020 -18.313460 12.239457 -6.896638 1.280039 -10.377015 -0.282623 -0.174845 -1.296682 -0.000000 -0.000003 0.000001 -1.778103 1.878633 12.483361 0.031031 -1.034170 17.979232 0.000001 -0.000000 0.000004 -0.357545 -7.065234 11.894435 -0.544705 1.384719 25.249148 0.000001 -0.000001 0.000001 1.778131 -3.723754 3.909914 -2.430069 5.066819 60.397703 0.000001 0.000001 0.000001 1.744867 -3.195705 9.071035 -2.053662 8.445503 51.629171 0.000000 0.000002 -0.000003 -0.000001 0.000001 0.000002 -0.000001 0.000001 -0.000001 -0.000001 0.000001 0.000002 -0.000003 -0.000001 0.000002 -0.000003 -0.000001 0.000001 -0.000003 -0.000001 0.000002 -0.000003 -0.000001 0.000002 0.000001 -0.000001 -0.000001 0.000001 -0.000001 -0.000001 0.000001 -0.000001 -0.000001 0.000001 -0.000001 -0.000001 0.000001 -0.000001 -0.000001 0.000001 -0.000001 -0.000001 0.000001 -0.000001 -0.000001 -0.000001 -0.000001 0.000001 -0.000000 0.000001 0.000001 
-0.716679 84.106750 6.093892 -3.027658 27.524993 -12.112663 -0.000000 -0.000000 -0.000000 -39.271921 0.540142 29.966253 73.312771 6.472308 6.983404 -30.172975 6.127527 -17.351717 -0.000000 -0.000002 -0.000000 -0.000000 0.000001 -0.000001 -26.051130 -6.236494 -10.228152 31.616413 10.845984 0.579720 -2.769129 -1.666644 17.214346 0.000000 0.000001 -0.000000 0.000001 -0.000000 -0.000003 3.236792 -0.609940 -2.777009 6.474663 -1.297279 -3.546265 6.474668 -1.297292 -3.546257 -0.556844 6.642540 0.293358 -0.556837 6.642535 0.293350 -0.000001 -0.000003 0.000001 -0.556768 6.642525 0.293354 -0.556852 6.642557 0.293353 0.000001 0.000002 -0.000000 -0.000001 -0.000003 0.000001 4.145900 -14.935230 -5.760644 3.789335 -8.153319 -33.886611 44.530344 -32.736161 -9.871642 10.424579 2.003139 -5.605024 -0.310795 1.877999 -0.804767 0.125704 -0.525491 4.985245 -0.000000 -0.000003 -0.000005 21.991010 -9.111459 -0.199307 -0.433629 -0.397614 -26.994899 -0.000000 -0.000001 0.000001 -0.195933 -0.017001 -7.683833 -0.392957 -1.415596 -20.301750 -0.000003 -0.000001 -0.000002 -0.430460 5.796196 -15.185037 -0.305140 -2.222811 -23.418743 -0.000001 -0.000004 0.000001 0.227673 13.770333 -10.401981 -0.587944 -5.671898 -32.980876 0.000001 -0.000003 -0.000001 -0.000003 0.000000 -0.000001 -0.000003 0.000000 -0.000001 -0.000004 0.000000 -0.000001 0.000000 0.000000 0.000001 0.000000 0.000000 0.000000 0.000000 0.000000 0.000001 -0.000001 -0.000000 0.000000 3.639315 -7.857912 13.397566 25.203586 -19.293964 61.374639 34.612738 53.724642 -3.283286 4.873751 -19.744149 11.625376 -6.896635 1.280031 -10.377012 0.092662 -3.291198 -0.504499 -0.000006 -0.000002 0.000003 -2.024218 1.888769 14.415509 0.040436 -1.043407 17.851949 -0.000002 0.000006 -0.000003 -0.370921 -6.852837 12.722680 -0.546014 1.383068 25.273452 0.000000 -0.000003 0.000003 1.751758 -3.879984 5.586218 -2.438784 5.075317 60.569387 0.000000 0.000002 0.000004 1.629959 -2.986310 9.662561 -2.049651 8.437807 51.594494 0.000000 0.000003 -0.000001 -0.000001 -0.000001 -0.000002 -0.000001 -0.000002 -0.000002 -0.000002 -0.000001 -0.000002 -0.000001 0.000000 -0.000000 -0.000001 0.000000 -0.000001 -0.000001 0.000000 -0.000000 -0.000001 -0.000000 -0.000000 0.000001 0.000001 -0.000001 0.000001 0.000001 -0.000001 0.000001 0.000001 -0.000001 0.000001 0.000001 -0.000001 0.000001 0.000001 -0.000001 0.000001 0.000001 -0.000001 0.000001 0.000001 -0.000001 -0.000000 -0.000000 0.000001 -0.000000 -0.000000 -0.000000 
